<?xml version="1.0" encoding="UTF-8"?><svg xmlns="http://www.w3.org/2000/svg" width="141" height="54" viewBox="0 0 141 54"><path d="M70.67,24.21c3.47,9.47,3.78,10.19,4.54,10.39v.53h-3.7v-.53c.75-.22.87-.78.17-3.03h-3.56c-.53,2.03-.33,2.82.67,3.03v.53h-3.33v-.53c.67-.17.85-.61,4.48-10.39h.73,0ZM71.48,30.92c-.37-1.12-.9-2.61-1.62-4.54-.7,1.9-1.21,3.38-1.56,4.54h3.17Z" style="fill:#004696;"/><path d="M79.79,27.35l.53.11v2.43l-.53.11c-.41-1.17-.96-2.17-2.05-2.17-.64,0-1.04.44-1.04,1.03,0,1.86,3.98,1.4,3.98,4.17,0,1.39-1.06,2.26-2.29,2.26-.99,0-1.5-.42-1.98-.42-.25,0-.37.08-.55.39l-.5-.12v-2.67l.51-.11c.76,1.98,1.7,2.36,2.43,2.36s1.1-.58,1.1-1.09c0-1.97-3.92-1.54-3.92-4.26,0-1.42,1.03-2.08,2.16-2.08.92,0,1.29.44,1.74.44.14,0,.31-.09.39-.38" style="fill:#004696;"/><path d="M85.72,27.35l.53.11v2.43l-.53.11c-.41-1.17-.96-2.17-2.05-2.17-.64,0-1.04.44-1.04,1.03,0,1.86,3.98,1.4,3.98,4.17,0,1.39-1.06,2.26-2.29,2.26-.99,0-1.5-.42-1.98-.42-.25,0-.37.08-.55.39l-.5-.12v-2.67l.51-.11c.76,1.98,1.7,2.36,2.43,2.36s1.1-.58,1.1-1.09c0-1.97-3.92-1.54-3.92-4.26,0-1.42,1.03-2.08,2.16-2.08.92,0,1.29.44,1.74.44.14,0,.31-.09.39-.38" style="fill:#004696;"/><path d="M94.93,34.6v.53h-2.48v-1.58c-.53,1.34-1.35,1.76-2.35,1.76-1.25,0-2.15-.7-2.15-2.95,0-3.46-.06-4.4-1.07-4.4v-.52h2.65c-.14,1.14-.16,2.87-.16,4.91,0,1.39.34,2.09,1.17,2.09.92,0,1.91-.64,1.91-3.29,0-2.39-.19-3.2-1.26-3.2v-.52h2.73c-.14,1.11-.16,2.57-.16,3.84,0,2.47.17,3.31,1.17,3.31" style="fill:#004696;"/><path d="M101,28.69c0,1-.54,1.5-1.12,1.5-.4,0-.73-.27-.79-.61.27-.2.39-.49.39-.75,0-.36-.25-.56-.52-.56-.31,0-1.29.24-1.29,2.9s.19,3.43,1.26,3.43v.53h-3.83v-.53c1.09,0,1.24-.84,1.24-3.31s-.16-3.32-1.24-3.32v-.52h2.57v1.42c.44-1.11,1.21-1.59,1.9-1.59.92,0,1.43.72,1.43,1.4" style="fill:#004696;"/><path d="M107.75,32.7c-.38,1.5-1.36,2.62-3.05,2.62-2.44,0-3.5-1.86-3.5-4.03s1.13-4.01,3.31-4.01,3.19,1.7,3.19,3.96h-4.87v.05c0,1.87.56,3.34,2.16,3.34.93,0,1.82-.67,2.13-2.12l.62.19h0ZM102.85,30.61h3.22c-.05-1.34-.39-2.71-1.56-2.71s-1.57,1.23-1.67,2.71ZM106.77,24.64l-2.6,2.17-.37-.3,1.31-2.3h1.67v.42Z" style="fill:#004696;"/><path d="M120.76,34.6v.53h-3.83v-.53c1.09,0,1.26-.78,1.26-4.38,0-1.39-.34-2.08-1.17-2.08-.75,0-1.79.44-1.81,3.15-.02,2.67.14,3.31,1.15,3.31v.53h-3.81v-.53c1.07,0,1.24-.78,1.24-4.38,0-1.39-.33-2.08-1.17-2.08s-1.9.55-1.9,3.27c0,2.37.19,3.18,1.26,3.18v.53h-3.83v-.53c1.09,0,1.24-.84,1.24-3.31s-.16-3.32-1.24-3.32v-.52h2.57v1.61c.5-1.34,1.32-1.78,2.33-1.78,1.28,0,1.81.69,2.02,1.78.51-1.29,1.32-1.78,2.36-1.78,1.26,0,2.16.7,2.16,2.93,0,3.6.05,4.38,1.14,4.38" style="fill:#004696;"/><path d="M127.59,32.7c-.37,1.5-1.36,2.62-3.05,2.62-2.44,0-3.5-1.86-3.5-4.03s1.13-4.01,3.31-4.01,3.19,1.7,3.19,3.96h-4.87v.05c0,1.87.56,3.34,2.16,3.34.93,0,1.82-.67,2.13-2.12l.62.19h0ZM122.69,30.61h3.22c-.05-1.34-.39-2.71-1.56-2.71s-1.57,1.23-1.67,2.71Z" style="fill:#004696;"/><path d="M136.21,34.6v.53h-3.81v-.53c1.04,0,1.24-.8,1.24-4.06,0-1.72-.28-2.4-1.18-2.4-.81,0-1.88.55-1.88,3.27,0,2.37.19,3.18,1.26,3.18v.53h-3.83v-.53c1.09,0,1.24-.84,1.24-3.31s-.16-3.31-1.24-3.31v-.53h2.57v1.59c.53-1.34,1.31-1.76,2.33-1.76,1.29,0,2.15.69,2.16,2.93.02,3.59.02,4.38,1.14,4.38" style="fill:#004696;"/><path d="M141,33.95c-.34.87-.93,1.37-1.77,1.37-1.07,0-1.85-.59-1.85-2.12,0-1.06.13-2.87.16-5.1h-1.39v-.53c1.37,0,2.24-1.37,2.41-2.81h.54l-.19,2.7h1.76v.64h-1.79v4.98c0,.98.31,1.26.76,1.26s.73-.28.92-.64l.44.25h0Z" style="fill:#004696;"/><path d="M75.29,39.92c-1.07,0-1.25.73-1.25,4.93s.17,4.93,1.25,4.93v.53h-3.89v-.53c1.04,0,1.23-.86,1.25-4.91h-4.56c.02,4.06.22,4.91,1.26,4.91v.53h-3.91v-.53c1.09,0,1.26-.8,1.26-4.93s-.17-4.93-1.26-4.93v-.53h3.91v.53c-1.04,0-1.24.58-1.26,4.29h4.56c-.02-3.71-.2-4.29-1.25-4.29v-.53h3.89v.53Z" style="fill:#004696;"/><path d="M83.38,49.78v.53h-2.48v-1.58c-.53,1.34-1.35,1.76-2.35,1.76-1.25,0-2.15-.7-2.15-2.95,0-3.46-.06-4.4-1.07-4.4v-.52h2.65c-.14,1.14-.16,2.87-.16,4.91,0,1.39.34,2.09,1.17,2.09.92,0,1.91-.64,1.91-3.29,0-2.39-.19-3.2-1.26-3.2v-.52h2.72c-.14,1.11-.16,2.57-.16,3.84,0,2.47.17,3.31,1.17,3.31" style="fill:#004696;"/><path d="M96.14,49.78v.53h-3.83v-.53c1.09,0,1.26-.78,1.26-4.38,0-1.39-.34-2.08-1.17-2.08-.75,0-1.79.44-1.81,3.15-.02,2.67.14,3.31,1.15,3.31v.53h-3.81v-.53c1.07,0,1.24-.78,1.24-4.38,0-1.39-.33-2.08-1.17-2.08s-1.9.55-1.9,3.27c0,2.37.19,3.18,1.26,3.18v.53h-3.83v-.53c1.09,0,1.24-.84,1.24-3.31s-.16-3.32-1.24-3.32v-.52h2.57v1.61c.5-1.34,1.32-1.78,2.33-1.78,1.28,0,1.8.69,2.02,1.78.51-1.29,1.32-1.78,2.36-1.78,1.26,0,2.16.7,2.16,2.93,0,3.6.05,4.38,1.14,4.38" style="fill:#004696;"/><path d="M101.99,47.6c0,1.7.25,2.11.95,2.11v.38c-.3.24-.65.42-1.13.42-.68,0-1.2-.36-1.23-1.56-.45,1.12-1.47,1.56-2.33,1.56-1.03,0-1.82-.63-1.82-1.84,0-2.78,4.16-2.28,4.16-3.7,0-.95-.16-1.97-1.37-1.97-.67,0-1.11.33-1.11.8,0,.35.25.63.62.58.27.66-.17,1.25-.92,1.25-.61,0-1.15-.44-1.15-1.25,0-1.17,1.12-1.9,2.65-1.9s2.69.75,2.69,2.85v2.28ZM100.57,47.5v-1.57c-.65.77-2.57.84-2.57,2.42,0,.72.42,1.15.99,1.15.82,0,1.57-.83,1.57-2Z" style="fill:#004696;"/><path d="M103.11,50.31v-.53c1.09,0,1.24-.84,1.24-3.31s-.16-3.32-1.24-3.32v-.52h2.74c-.16,1.08-.17,2.57-.17,3.84,0,2.47.17,3.31,1.26,3.31v.53h-3.83ZM105.89,40.59c0,.58-.45,1.03-1.01,1.03-.59,0-1.02-.45-1.02-1.03s.44-1.04,1.02-1.04,1.01.45,1.01,1.04Z" style="fill:#004696;"/><path d="M115.31,49.78v.53h-3.81v-.53c1.04,0,1.24-.8,1.24-4.06,0-1.72-.28-2.4-1.18-2.4-.81,0-1.88.55-1.88,3.27,0,2.37.19,3.18,1.26,3.18v.53h-3.83v-.53c1.09,0,1.24-.84,1.24-3.31s-.16-3.31-1.24-3.31v-.53h2.57v1.59c.53-1.34,1.31-1.76,2.33-1.76,1.29,0,2.15.69,2.16,2.93.02,3.59.02,4.38,1.14,4.38" style="fill:#004696;"/><path d="M53.86,0H0v53.99h53.86V0Z" style="fill:#fff;"/><path d="M53.86,54H0V21.84s35.99,2.94,53.86-7.1v39.26Z" style="fill:#004696;"/><path d="M38.29,44.82c.83-.1,1.34-.28,1.54-.52.2-.24.3-.87.3-1.9v-10.35c0-.85-.11-1.41-.34-1.67-.22-.26-.73-.42-1.5-.48v-.45h11.18l.1,3.39h-.58c-.14-1.08-.41-1.77-.82-2.06-.4-.29-1.19-.43-2.38-.43h-2.87c-.29,0-.46.05-.54.17-.08.1-.12.31-.12.63v5.33h2.59c.89,0,1.47-.07,1.71-.31.25-.26.44-.79.6-1.58h.49v4.75h-.49c-.16-.79-.36-1.32-.6-1.58-.25-.25-.82-.31-1.71-.31h-2.59v5.23c0,.87.12,1.44.35,1.68.24.24.75.4,1.54.48v.45h-5.86v-.45h0Z" style="fill:#fff;"/><path d="M17.45,36.82h-3.87v.45c.77.05,1.27.19,1.5.42.23.23.34.8.34,1.73v3.79c0,.26-.06.46-.18.6-.13.14-.43.29-.94.48-.31.11-.63.2-.97.25-.34.05-.64.08-.89.08-1.5,0-2.76-.62-3.78-1.85-1.02-1.24-1.53-2.95-1.53-5.15,0-2.67.51-4.59,1.53-5.74,1.02-1.15,2.21-1.74,3.55-1.74s2.4.49,3.23,1.49c.46.57.9,1.43,1.33,2.57h.48l-.17-5.02h-.47c-.09.25-.2.44-.33.58-.12.13-.34.2-.64.2-.12,0-.57-.14-1.35-.39-.79-.26-1.59-.39-2.4-.39-2.24,0-4.05.87-5.42,2.63-1.23,1.59-1.85,3.49-1.85,5.72,0,2.53.78,4.55,2.32,6.05,1.41,1.36,3.13,2.04,5.18,2.04,1.11,0,2.27-.23,3.47-.7,1.2-.47,1.81-.84,1.81-1.12v-6.97h0Z" style="fill:#fff;"/><path d="M21.97,32.22l5.3,13.04h.29l5.38-13.61v13.61h3.96v-.45c-.77-.08-1.28-.24-1.5-.49-.22-.25-.34-.8-.34-1.67v-10.62c0-.85.11-1.4.34-1.66.23-.26.73-.42,1.5-.48v-.45h-4.16l-4.72,11.93-4.84-11.93h-4.13v.45c.85.05,1.39.19,1.63.46.24.26.36.82.36,1.68v9.7c0,1.25-.13,2.06-.37,2.4-.24.35-.81.57-1.67.67v.45h2.96v-13.04h0Z" style="fill:#fff;"/><path d="M34.08,15.3c-2.36.29-5.4-.41-6.97-.94-.12-.04-.03-.07-.08.01-.1.15-.19.52-.26.73.03-.1.61.4.73.4.08,0,.07-.06-.14.64-.05.17-.11,1.01-.07,1.01.04.01.72.17.9.17h.03c2.75.19,4.57.13,4.67.17.17.07.25-.03.22-.15,0,0,.01-.17.12-.36.27-.5.66-1.04.95-1.57.13-.15,0-.17-.1-.1" style="fill:#ff9150;"/><path d="M24.93,1.53l1.46.17,3.7,1.52.94-.15c-1.51-1.13-3.9-2.28-7.36-2.26l.37.82.89-.1h0Z" style="fill:#ff9150;"/><path d="M45.08,5.99l-1.75-.89,2.75-.12-.14-2.11s-2.49-.26-2.75-.28l.06,2.47-2.42-1.22s3.9-2.03,3.96-2.16l3.22,1.94-2.92,2.39h0ZM37.68,0c.19.48,1.11,1.73.93,2.08-1.38,2.64-3.05,5.59-4.31,6.78-.17.22-.15.73.1.85.24.1,1.09.35,1.56.46.4.15.67.25.75.43.14.22-.23.73-.49.97l.07.45c.33.19.88.38,2.17,1.09.15.1-.02.36-.1.46-.08.11-.68.87-.93,1.01-.15.09-.05.51,0,.57.68.09.9,1.08.96,2.12,6.33-1.91,11.97-4.79,15.49-9.13V0h-16.18Z" style="fill:#ff9150;"/><path d="M25.42,4.29l.47,1.7c-.48-.17-1-.47-1.53-.93,0,0,.34-.46,1.06-.77ZM28.1,4.24c.46.14.97.36,1.52.69-.02.21-1.13,1.36-2.75,1.27l1.56-.69-.34-1.27h0ZM25.25,15.85l-.03-.23c-.47-.71-1.33-2.38-1.94-3.48-.15-.21-.11-.07-.09-.43.02-.35.02-1.51.02-1.95s-.02-1.43-.04-1.95c-.05-1.19.51-.89.51-.89.46.33,2.85.68,3.11.71.31.03.23-.02.41-.07.17-.03,2.83-.85,3.92-2.83-1.77-1.34-4.87-1.85-5.04-1.91l-.65.22c-.25.12-1.63.65-1.73.74l-.34.14-.7.29-.05-.12s0-.95.13-1.8c.03-.26.17-1.49.14-1.68-.02-.14-.03-.37.01-.49l.03-.13h-3.81c.12.87-.11,1.88-.1,2.58.02.81.14.85.14,1.5s-.01,10.28-.01,11.29c0,1.09-.24,3.87-.35,5.15,2.28-.15,4.65-.36,7.05-.67-.22-1.54-.64-3.99-.57-4" style="fill:#ff9150;"/><path d="M8.43,7.05c-1.13-.77-4.07-2.83-4.07-2.83l2.99-.98-.17,2.67,3.08.17.08-2.78-2.25-.3,1.69-.56,2.77,1.98s-2.53,2.23-4.12,2.64M17.56,11.71c-.43-1.08-1.83-6.1-2.28-7.09-.36-.8.04-1.92.57-3.47l.03-.07c.19-.35.12-.53.28-.81l.12-.25H0v20.5s5.36.45,12.81.28c.17-.36.21-.37.35-.83.14-.44-.71-.85-1.15-1.11-.16-.1-.1-.5.02-.62,1.22-1.13,2.07-1.88,2.48-2,.01-.14.1-.38-.05-.46l-.07-.03c-.17-.07-.24-.08-.36-.2v-.06c-.1-.39-.02-.58-.02-1.28.05-.36.12-.44.25-.53l.14-.11c.95-.63,1-.64,2.73-.92.4-.11.6-.42.48-.86l-.05-.08h0Z" style="fill:#ff9150;"/></svg>